<svg version="1.2" xmlns="http://www.w3.org/2000/svg" viewBox="0 0 35 35" width="35" height="35"><style>.a{fill:#f8bc4c}</style><path fill-rule="evenodd" class="a" d="m33.5 16.9q-0.1 0-0.2 0c-0.4 0-0.8-0.3-0.9-0.8-0.6-3.3-2.2-6.3-4.6-8.8-2.4-2.4-5.5-4-8.8-4.5-0.5-0.1-0.9-0.6-0.8-1.1 0.1-0.6 0.6-0.9 1.1-0.8 3.8 0.6 7.2 2.4 9.9 5.1 2.7 2.7 4.5 6.1 5.1 9.8 0.1 0.5-0.3 1-0.8 1.1zm-14.5-9.9c2.3 0.4 4.4 1.5 6 3.1 1.7 1.7 2.8 3.7 3.1 6 0.1 0.5-0.2 1-0.8 1.1q0 0-0.1 0c-0.5 0-0.9-0.3-1-0.8-0.3-1.8-1.2-3.5-2.5-4.9-1.4-1.4-3.1-2.3-5-2.6-0.5-0.1-0.9-0.6-0.8-1.1 0.1-0.5 0.6-0.9 1.1-0.8zm-0.2 16.5q0.3 0.1 0.7 0.3 0.3 0.2 0.6 0.3l2.2-2.2c0.7-0.8 1.6-1.1 2.5-1.1 0.9 0 1.7 0.4 2.4 1.1l3.9 3.9c0.8 0.7 1.1 1.6 1.1 2.5 0 0.9-0.3 1.7-1 2.5q-0.5 0.4-1 0.9c-0.4 0.4-0.8 0.8-1.2 1.3q0 0-0.1 0-1.6 1.8-4.1 1.8-0.2 0-0.4 0c-2.5-0.2-4.7-1.1-6.4-1.9-4.3-2.1-8.1-5-11.2-8.8-2.6-3.1-4.3-6-5.5-9.1-0.5-1.3-1.1-3.2-0.9-5.3q0.2-2 1.5-3.4l2.5-2.4q0 0 0 0c0.7-0.7 1.6-1.1 2.4-1.1 0.9 0 1.7 0.4 2.4 1.1q0.7 0.6 1.4 1.3 0.3 0.3 0.7 0.7l1.9 1.9c1.5 1.5 1.5 3.5 0 5q-0.3 0.3-0.6 0.6-0.8 0.8-1.6 1.6c0.4 1 1 2 1.9 3.1 1.8 2.3 3.8 4 5.9 5.4zm-7.4-4.2c-1.1-1.4-1.8-2.6-2.4-3.8q0 0 0 0c-0.1-0.5-0.2-1.1 0.4-1.7q0 0 0 0c0.7-0.6 1.2-1.1 1.8-1.8q0.3-0.3 0.7-0.6c0.7-0.7 0.7-1.4 0-2.2l-2-1.9q-0.4-0.4-0.7-0.7-0.6-0.7-1.3-1.3 0 0 0 0c-0.2-0.3-0.6-0.5-1-0.5q-0.6 0-1.1 0.5l-2.5 2.4q-0.9 0.9-1 2.1c-0.1 1.3 0.2 2.7 0.8 4.5 1.1 2.9 2.7 5.7 5.2 8.6 3 3.5 6.5 6.3 10.6 8.3 1.5 0.7 3.5 1.5 5.6 1.7q0.1 0 0.3 0c1.1 0 2-0.4 2.7-1.2q0.7-0.8 1.4-1.4 0.5-0.4 0.9-0.9 1.1-1.1 0-2.2l-4-4q0 0 0 0c-0.2-0.2-0.6-0.5-1-0.5-0.5 0-0.9 0.3-1.1 0.5l-2.5 2.5c-0.1 0.1-0.5 0.5-1.1 0.5q-0.3 0-0.7-0.2 0 0-0.1-0.1-0.3-0.1-0.7-0.3-0.4-0.2-0.9-0.5c-2.3-1.5-4.3-3.4-6.3-5.8zm18.4 10.1q0 0 0 0z"/></svg>